Patient4_TMGait_0pt6_02_right_03_GRF.mot
version=1
nRows=78
nColumns=19
inDegrees=no
endheader
time	F1x	F1y	F1z	M1x	M1y	M1z	F2x	F2y	F2z	M2x	M2y	M2z	EC1x	EC1y	EC1z	EC2x	EC2y	EC2z
2.93	-2.2595	744.2729	72.3684	-269.0202	-64.3023	690.1248	-0.23084	7.9012	-1.5446	3.0524	1.5861	11.4426	-0.0592	0.0182	-0.0073	-0.0462	0.0165	0.9585
2.9424	0.57911	744.2865	70.2742	-267.872	-61.2337	688.9881	-0.30149	6.0703	-1.2022	2.3744	1.3206	8.5407	-0.0592	0.0182	-0.0073	-0.0462	0.0165	0.9585
2.9549	3.4174	744.3908	68.3507	-266.6967	-58.2659	687.2087	-0.40374	4.5465	-0.84978	1.7948	1.0381	6.1156	-0.0592	0.0182	-0.0073	-0.0462	0.0165	0.9585
2.9673	6.0928	744.7029	66.6482	-265.6184	-55.507	684.9009	-0.519	3.4166	-0.54098	1.3565	0.78506	4.3084	-0.0592	0.0182	-0.0073	-0.0462	0.0165	0.9585
2.9797	8.5412	745.2945	65.174	-264.7263	-52.9973	682.2169	-0.6288	2.6646	-0.30314	1.06	0.58362	3.1034	-0.0592	0.0182	-0.0073	-0.0462	0.0165	0.9585
2.9921	10.7628	746.14	63.8827	-264.0511	-50.7048	679.2472	-0.72692	2.2258	-0.14167	0.88244	0.44107	2.4034	-0.0592	0.0182	-0.0073	-0.0462	0.0165	0.9585
3.0046	12.8109	747.0753	62.75	-263.5509	-48.5993	675.962	-0.80642	1.9927	-0.046807	0.78535	0.35317	2.0437	-0.0592	0.0182	-0.0073	-0.0462	0.0165	0.9585
3.017	14.7709	747.8641	61.7143	-263.1388	-46.6064	672.2556	-0.87522	1.8609	-0.0081746	0.72712	0.32146	1.8722	-0.0592	0.0182	-0.0073	-0.0462	0.0165	0.9585
3.0294	16.7336	748.2716	60.7407	-262.7165	-44.6707	668.0047	-0.93038	1.6897	-0.014038	0.65377	0.34072	1.6899	-0.0592	0.0182	-0.0073	-0.0462	0.0165	0.9585
3.0419	18.7854	748.1116	59.8132	-262.1983	-42.7502	663.1177	-0.99124	1.3537	-0.052013	0.51462	0.40556	1.3448	-0.0592	0.0182	-0.0073	-0.0462	0.0165	0.9585
3.0543	21.0095	747.2598	58.96	-261.5196	-40.8381	657.5452	-1.0405	0.7116	-0.11707	0.25509	0.50348	0.6617	-0.0592	0.0182	-0.0073	-0.0462	0.0165	0.9585
3.0667	23.4595	745.6989	58.2029	-260.652	-38.9285	651.3243	-1.0776	-0.34463	-0.20273	-0.16797	0.62103	-0.48003	-0.0592	0.0182	-0.0073	-0.0462	0.0165	0.9585
3.0791	26.1699	743.5344	57.557	-259.6087	-37.0186	644.5855	-1.0673	-1.8994	-0.30125	-0.78474	0.73417	-2.1724	-0.0592	0.0182	-0.0073	-0.0462	0.0165	0.9585
3.0916	29.1557	741.0217	57.0162	-258.4573	-35.0952	637.59	-0.98759	-3.9312	-0.39329	-1.588	0.80959	-4.3778	-0.0592	0.0182	-0.0073	-0.0462	0.0165	0.9585
3.104	32.3939	738.5292	56.5966	-257.3077	-33.1757	630.6912	-0.7839	-6.2922	-0.45429	-2.5183	0.79816	-6.9413	-0.0592	0.0182	-0.0073	-0.0462	0.0165	0.9585
3.1164	35.8281	736.4994	56.3442	-256.2957	-31.313	624.3063	-0.40699	-8.6142	-0.45074	-3.4304	0.63986	-9.4592	-0.0592	0.0182	-0.0073	-0.0462	0.0165	0.9585
3.1289	39.3845	735.3692	56.3482	-255.5543	-29.6079	618.8362	0.20802	-10.2513	-0.3295	-4.0655	0.25326	-11.2354	-0.0592	0.0182	-0.0073	-0.0462	0.0165	0.9585
3.1413	42.9977	735.4724	56.6882	-255.1869	-28.157	614.5794	1.1074	-10.1828	-0.026329	-4.0163	-0.44168	-11.166	-0.0592	0.0182	-0.0073	-0.0462	0.0165	0.9585
3.1537	46.6124	736.9124	57.4137	-255.229	-27.0287	611.6322	2.3036	-6.9582	0.53563	-2.7059	-1.5221	-7.6901	-0.0592	0.0182	-0.0073	-0.0462	0.0165	0.9585
3.1661	50.2241	739.492	58.4834	-255.6222	-26.1995	609.8298	3.7468	1.2932	1.4225	0.61054	-3.0245	1.2049	-0.0592	0.0182	-0.0073	-0.0462	0.0165	0.9585
3.1786	53.857	742.5977	59.7801	-256.1762	-25.5733	608.6522	5.2631	16.7252	2.6822	6.7918	-4.916	17.8361	-0.0592	0.0182	-0.0073	-0.0462	0.0165	0.9585
3.191	57.5581	745.1431	61.0806	-256.5467	-24.9623	607.1889	6.5242	41.4514	4.2885	16.6791	-7.0243	44.4805	-0.0592	0.0182	-0.0073	-0.0462	0.0165	0.9585
3.2034	61.3383	745.534	62.0895	-256.2158	-24.1375	604.1378	6.9644	76.9786	6.1218	30.867	-8.982	82.7873	-0.0592	0.0182	-0.0073	-0.0462	0.0165	0.9585
3.2159	65.1146	741.7708	62.4472	-254.5262	-22.8595	597.9173	5.7701	123.2648	7.9005	49.3264	-10.1508	132.7276	-0.0592	0.0182	-0.0073	-0.0462	0.0165	0.9585
3.2283	68.6565	731.6739	61.7887	-250.7562	-20.9398	586.8493	1.9431	177.5456	9.1262	70.9327	-9.6085	191.3332	-0.0592	0.0182	-0.0073	-0.0462	0.0165	0.9585
3.2407	71.5879	713.2107	59.7965	-244.2279	-18.2863	569.4173	-4.7773	233.6361	9.1089	93.1859	-6.5518	251.9397	-0.0592	0.0182	-0.0073	-0.0462	0.0165	0.9585
3.2531	73.4463	684.8962	56.3042	-234.4411	-14.9588	544.544	-12.9905	283.6804	7.0334	112.9239	-0.75178	305.9645	-0.0592	0.0182	-0.0073	-0.0462	0.0165	0.9585
3.2656	73.7959	646.1805	51.3647	-221.197	-11.1683	511.8739	-21.1349	323.0405	3.0302	128.2931	6.9517	348.2174	-0.0592	0.0182	-0.0073	-0.0462	0.0165	0.9585
3.278	72.343	597.6091	45.2843	-204.6498	-7.2434	471.9089	-28.2107	352.1739	-2.3154	139.4687	15.5435	379.0396	-0.0592	0.0182	-0.0073	-0.0462	0.0165	0.9585
3.2904	69.045	540.6465	38.554	-185.2598	-3.5506	425.8225	-33.7374	374.4191	-8.4287	147.7966	24.2131	401.9731	-0.0592	0.0182	-0.0073	-0.0462	0.0165	0.9585
3.3029	63.9558	477.5145	31.6748	-163.7477	-0.40694	375.3593	-37.7089	394.1462	-14.5824	155.0514	32.2188	421.6841	-0.0592	0.0182	-0.0073	-0.0462	0.0165	0.9585
3.3153	57.2785	410.9757	25.1123	-141.027	1.9374	322.6433	-40.3826	415.4604	-20.3932	162.8966	39.266	442.5588	-0.0592	0.0182	-0.0073	-0.0462	0.0165	0.9585
3.3277	49.2978	344.105	19.2058	-118.1354	3.3535	270.0267	-42.0397	441.4709	-25.4499	172.5896	45.0801	467.856	-0.0592	0.0182	-0.0073	-0.0462	0.0165	0.9585
3.3401	40.4362	279.9829	14.1609	-96.1335	3.8451	219.825	-43.0519	473.8716	-29.8628	184.7976	49.9256	499.3794	-0.0592	0.0182	-0.0073	-0.0462	0.0165	0.9585
3.3526	31.2262	221.3629	10.0472	-75.9829	3.5562	174.0918	-43.6914	512.8027	-33.7605	199.5589	54.0712	537.2778	-0.0592	0.0182	-0.0073	-0.0462	0.0165	0.9585
3.365	22.2969	170.2122	6.8671	-58.3819	2.7071	134.2611	-44.1648	556.897	-37.5975	216.3037	58.0509	580.1624	-0.0592	0.0182	-0.0073	-0.0462	0.0165	0.9585
3.3774	14.2231	127.4591	4.5594	-43.6691	1.5442	100.9709	-44.5978	603.6803	-41.5583	234.0414	62.1015	625.4778	-0.0592	0.0182	-0.0073	-0.0462	0.0165	0.9585
3.3899	7.3948	92.9769	2.9995	-31.813	0.28889	74.0727	-45.1132	650.1436	-45.8853	251.5839	66.4958	670.1555	-0.0592	0.0182	-0.0073	-0.0462	0.0165	0.9585
3.4023	1.985	65.9231	2.0261	-22.5267	-0.88611	52.8927	-45.7428	693.5179	-50.4062	267.8634	71.0736	711.3805	-0.0592	0.0182	-0.0073	-0.0462	0.0165	0.9585
3.4147	-1.9766	45.149	1.4636	-15.408	-1.8489	36.5581	-46.4023	731.6675	-54.8856	282.0812	75.5636	746.9877	-0.0592	0.0182	-0.0073	-0.0462	0.0165	0.9585
3.4271	-4.4987	29.4742	1.1316	-10.0454	-2.4746	24.1672	-46.9531	763.1687	-58.897	293.7264	79.4867	775.552	-0.0592	0.0182	-0.0073	-0.0462	0.0165	0.9585
3.4396	-5.6627	17.893	0.88059	-6.0897	-2.683	14.9706	-47.1928	787.1157	-62.2464	302.4852	82.5762	796.1859	-0.0592	0.0182	-0.0073	-0.0462	0.0165	0.9585
3.452	-5.6188	9.6222	0.63657	-3.2701	-2.4753	8.3632	-46.9942	803.1051	-64.7279	308.2341	84.5838	808.5337	-0.0592	0.0182	-0.0073	-0.0462	0.0165	0.9585
3.4644	-4.7527	4.0925	0.39624	-1.3905	-1.9811	3.9119	-46.2169	811.208	-66.3596	311.0225	85.4799	812.6933	-0.0592	0.0182	-0.0073	-0.0462	0.0165	0.9585
3.4769	-3.5636	0.80856	0.20364	-0.28012	-1.4075	1.2428	-44.8007	812.046	-67.137	311.1005	85.2459	809.3288	-0.0592	0.0182	-0.0073	-0.0462	0.0165	0.9585
3.4893	-2.3604	-0.82613	0.072038	0.26268	-0.87737	-0.10353	-42.7045	806.6814	-67.1991	308.8895	84.0134	799.5182	-0.0592	0.0182	-0.0073	-0.0462	0.0165	0.9585
3.5017	-1.3254	-1.3565	-0.00733	0.42346	-0.44717	-0.54386	-39.9531	796.7396	-66.6151	305.0165	81.8709	784.9059	-0.0592	0.0182	-0.0073	-0.0462	0.0165	0.9585
3.5141	-0.51877	-1.2288	-0.040181	0.35563	-0.13814	-0.45689	-36.5701	784.0924	-65.5662	300.1976	79.0173	767.3392	-0.0592	0.0182	-0.0073	-0.0462	0.0165	0.9585
3.5266	0.03277	-0.75315	-0.047662	0.16847	0.060547	-0.084368	-32.6564	770.5846	-64.1696	295.1355	75.6109	748.6381	-0.0592	0.0182	-0.0073	-0.0462	0.0165	0.9585
3.539	0.38065	-0.14406	-0.039369	-0.062455	0.17179	0.39546	-28.3134	757.7914	-62.581	290.4247	71.8517	730.3561	-0.0592	0.0182	-0.0073	-0.0462	0.0165	0.9585
3.5514	0.55095	0.47955	-0.031213	-0.29303	0.222	0.91075	-23.6911	746.9397	-60.8656	286.525	67.866	713.7254	-0.0592	0.0182	-0.0073	-0.0462	0.0165	0.9585
3.5639	0.61014	1.0351	-0.023274	-0.49527	0.23164	1.3921	-18.934	738.8332	-59.1208	283.7277	63.8079	699.5791	-0.0592	0.0182	-0.0073	-0.0462	0.0165	0.9585
3.5763	0.59744	1.5023	-0.026676	-0.66194	0.22317	1.8376	-14.1773	733.8204	-57.4166	282.1442	59.7994	688.3183	-0.0592	0.0182	-0.0073	-0.0462	0.0165	0.9585
3.5887	0.55307	1.8631	-0.033581	-0.7888	0.20144	2.2134	-9.5594	731.8107	-55.8605	281.7124	55.9915	679.9307	-0.0592	0.0182	-0.0073	-0.0462	0.0165	0.9585
3.6011	0.48511	2.118	-0.049191	-0.8762	0.1772	2.4986	-5.1788	732.3812	-54.5111	282.2466	52.4753	674.081	-0.0592	0.0182	-0.0073	-0.0462	0.0165	0.9585
3.6136	0.40564	2.2594	-0.066466	-0.91898	0.14789	2.6653	-1.1218	734.9026	-53.4151	283.483	49.3241	670.2456	-0.0592	0.0182	-0.0073	-0.0462	0.0165	0.9585
3.626	0.31131	2.2526	-0.083718	-0.90342	0.11316	2.6697	2.5744	738.5889	-52.572	285.1043	46.5525	667.741	-0.0592	0.0182	-0.0073	-0.0462	0.0165	0.9585
3.6384	0.19694	2.0426	-0.095092	-0.80876	0.067411	2.4518	5.8809	742.5974	-51.973	286.7771	44.1638	665.8346	-0.0592	0.0182	-0.0073	-0.0462	0.0165	0.9585
3.6509	0.070312	1.5464	-0.096318	-0.60434	0.010196	1.9221	8.8278	746.1241	-51.58	288.1893	42.1171	663.8155	-0.0592	0.0182	-0.0073	-0.0462	0.0165	0.9585
3.6633	-0.072206	0.67168	-0.085106	-0.25541	-0.059417	0.98942	11.4596	748.5022	-51.3451	289.0839	40.357	661.0962	-0.0592	0.0182	-0.0073	-0.0462	0.0165	0.9585
3.6757	-0.19403	-0.6675	-0.054435	0.26762	-0.13591	-0.44996	13.8618	749.2293	-51.216	289.2724	38.8076	657.2129	-0.0592	0.0182	-0.0073	-0.0462	0.0165	0.9585
3.6881	-0.26172	-2.5021	-0.0063084	0.97806	-0.20484	-2.4264	16.1497	748.0161	-51.1493	288.646	37.3901	651.8957	-0.0592	0.0182	-0.0073	-0.0462	0.0165	0.9585
3.7006	-0.18805	-4.7849	0.048089	1.8548	-0.22521	-4.9055	18.4113	744.729	-51.1117	287.1555	36.0466	645.0189	-0.0592	0.0182	-0.0073	-0.0462	0.0165	0.9585
3.713	0.1036	-7.2822	0.089776	2.81	-0.14607	-7.6368	20.6859	739.4173	-51.0956	284.8133	34.7634	636.6355	-0.0592	0.0182	-0.0073	-0.0462	0.0165	0.9585
3.7254	0.73864	-9.537	0.09042	3.6654	0.10912	-10.1432	22.9708	732.3625	-51.1277	281.7125	33.5647	627.0093	-0.0592	0.0182	-0.0073	-0.0462	0.0165	0.9585
3.7379	1.8265	-10.7472	0.021366	4.1089	0.61388	-11.5621	25.2514	724.1039	-51.2635	278.0426	32.4887	616.6162	-0.0592	0.0182	-0.0073	-0.0462	0.0165	0.9585
3.7503	3.4745	-9.7082	-0.15855	3.6702	1.4517	-10.6101	27.5266	715.4158	-51.5711	274.0846	31.578	606.1227	-0.0592	0.0182	-0.0073	-0.0462	0.0165	0.9585
3.7627	5.7144	-4.7731	-0.48742	1.7091	2.6773	-5.5021	29.7817	707.1533	-52.0683	270.1604	30.8365	596.255	-0.0592	0.0182	-0.0073	-0.0462	0.0165	0.9585
3.7751	8.4664	6.1239	-1.0068	-2.5752	4.3026	5.9902	32.0051	700.0311	-52.7315	266.5503	30.2417	587.6025	-0.0592	0.0182	-0.0073	-0.0462	0.0165	0.9585
3.7876	11.436	25.2449	-1.7312	-10.0566	6.225	26.3234	34.1699	694.3868	-53.4469	263.4052	29.7053	580.4365	-0.0592	0.0182	-0.0073	-0.0462	0.0165	0.9585
3.8	14.021	54.6431	-2.647	-21.5219	8.1852	57.7604	36.2395	690.0052	-54.0577	260.6765	29.116	574.559	-0.0592	0.0182	-0.0073	-0.0462	0.0165	0.9585
3.8124	15.2161	95.4476	-3.6668	-37.3891	9.6845	101.6021	38.1596	686.0825	-54.3433	258.1005	28.3214	569.2885	-0.0592	0.0182	-0.0073	-0.0462	0.0165	0.9585
3.8249	13.591	146.8565	-4.6161	-57.3207	9.9698	157.1188	39.8637	681.2258	-54.1028	255.2004	27.1939	563.4601	-0.0592	0.0182	-0.0073	-0.0462	0.0165	0.9585
3.8373	7.9998	205.4717	-5.1584	-79.965	8.2433	220.7892	41.287	673.6471	-53.1491	251.3552	25.6147	555.5828	-0.0592	0.0182	-0.0073	-0.0462	0.0165	0.9585
3.8497	-0.98409	265.499	-4.7794	-103.0174	4.1746	286.4116	42.368	661.4789	-51.355	245.9096	23.5122	544.1074	-0.0592	0.0182	-0.0073	-0.0462	0.0165	0.9585
3.8621	-11.3634	319.0133	-2.6899	-123.3824	-2.2587	345.2818	43.0751	643.0474	-48.714	238.274	20.9051	527.6401	-0.0592	0.0182	-0.0073	-0.0462	0.0165	0.9585
3.8746	-21.0907	360.2128	1.187	-138.8261	-10.2859	390.8621	43.3883	617.2256	-45.3352	228.0476	17.9145	505.2387	-0.0592	0.0182	-0.0073	-0.0462	0.0165	0.9585
3.887	-29.2987	388.6049	5.8727	-149.2091	-18.5116	422.4553	43.2644	583.7399	-41.3713	215.1267	14.6889	476.6847	-0.0592	0.0182	-0.0073	-0.0462	0.0165	0.9585
